<?xml version="1.0" encoding="UTF-8" standalone="no"?>
<svg width="209px" height="188px" viewBox="0 0 209 188" version="1.1" xmlns="http://www.w3.org/2000/svg" xmlns:xlink="http://www.w3.org/1999/xlink" xmlns:sketch="http://www.bohemiancoding.com/sketch/ns">
    <!-- Generator: Sketch 3.0.4 (8053) - http://www.bohemiancoding.com/sketch -->
    <title>Untitled 5</title>
    <desc>Created with Sketch.</desc>
    <defs></defs>
    <g id="Page-1" stroke="none" stroke-width="1" fill="none" fill-rule="evenodd" sketch:type="MSPage">
        <path d="M64.656,144.72 C65.376,144.72 65.952,144.288 66.384,143.712 L87.84,106.128 L100.8,141.552 C101.232,142.992 102.672,144 104.256,144 L122.4,144 C123.696,144 124.56,142.704 124.128,141.552 L93.312,60.336 C93.024,59.616 92.448,59.184 91.728,59.184 C91.008,59.184 90.288,59.616 90,60.192 L64.656,108.288 L39.312,60.192 C38.88,59.616 38.304,59.184 37.584,59.184 C36.864,59.184 36.288,59.616 36,60.336 L5.184,141.552 C4.752,142.704 5.616,144 6.912,144 L25.056,144 C26.64,144 27.936,142.992 28.512,141.552 L41.472,106.128 L62.928,143.712 C63.216,144.288 63.936,144.72 64.656,144.72 L64.656,144.72 Z" id="m" fill="#533232" sketch:type="MSShapeGroup"></path>
        <path d="M145.672,144 C147.112,144 148.264,142.848 148.264,141.408 L148.264,108.72 L175.48,141.984 C176.632,143.28 178.216,144 179.8,144 L202.984,144 C203.992,144 204.424,142.848 203.704,142.128 L166.696,100.8 L202.12,61.776 C202.84,61.056 202.408,59.904 201.4,59.904 L177.64,59.904 C176.056,59.904 174.472,60.624 173.32,61.92 L148.264,92.88 L148.264,62.352 C148.264,60.912 147.112,59.76 145.672,59.76 L129.112,59.76 C127.672,59.76 126.52,60.912 126.52,62.352 L126.52,141.408 C126.52,142.848 127.672,144 129.112,144 L145.672,144 Z" id="k" fill="#533232" sketch:type="MSShapeGroup"></path>
    </g>
</svg>